<svg width="800" height="600" xmlns="http://www.w3.org/2000/svg">

 <g>
  <title>Layer 1</title>
  <g stroke="#62612C" fill="white">
   <!--! Font Awesome Pro 6.1.1 by @fontawesome - https://fontawesome.com License - https://fontawesome.com/license (Commercial License) Copyright 2022 Fonticons, Inc. -->
   <path stroke="#62612C" d="m319.3613,338.85011c-3.5,19.2 -17.4,108.7 -21.5,134c-0.3,1.8 -1,2.5 -3,2.5l-74.6,0c-7.6,0 -13.1,-6.6 -12.1,-13.9l58.6,-371.9c1.5,-9.6 10.1,-16.9 20,-16.9c152.3,0 165.1,-3.7 204,11.4c60.1,23.3 65.6,79.5 44,140.3c-21.5,62.6 -72.5,89.5 -140.1,90.3c-43.4,0.7 -69.5,-7 -75.3,24.2zm245.7,-143.9c-1.8,-1.3 -2.5,-1.8 -3,1.3c-2,11.4 -5.1,22.5 -8.8,33.6c-39.9,113.8 -150.5,103.9 -204.5,103.9c-6.1,0 -10.1,3.3 -10.9,9.4c-22.6,140.4 -27.1,169.7 -27.1,169.7c-1,7.1 3.5,12.9 10.6,12.9l63.5,0c8.6,0 15.7,-6.3 17.4,-14.9c0.7,-5.4 -1.1,6.1 14.4,-91.3c4.6,-22 14.3,-19.7 29.3,-19.7c71,0 126.4,-28.8 142.9,-112.3c6.5,-34.8 4.6,-71.4 -23.8,-92.6z"/>
  </g>
 </g>
</svg>